<svg width="170" height="25" viewBox="0 0 170 25" fill="none" xmlns="http://www.w3.org/2000/svg">
<path d="M0.0273438 24.2949L0 21.2871C1.09375 21.7155 2.2194 21.9297 3.37695 21.9297C4.3431 21.9297 5.00846 21.6608 5.37305 21.123C5.73763 20.5853 5.91992 19.6191 5.91992 18.2246V0.505859H10.1445V17.7734C10.1445 20.2617 9.63867 22.0527 8.62695 23.1465C7.61523 24.2402 5.96094 24.7871 3.66406 24.7871C2.51562 24.7871 1.30339 24.623 0.0273438 24.2949ZM12.442 20.7402L20.317 0.505859H24.5279L32.4029 20.7402H28.0826L25.9771 15.3398H17.6099L15.5045 20.7402H12.442ZM18.649 12.6465H24.938L21.7935 4.58008L18.649 12.6465ZM34.714 20.7402V0.505859H38.4191L47.798 14.3281V0.505859H51.1749V20.7402H47.4015L38.0909 6.91797V20.7402H34.714ZM71.8337 20.2617C69.2998 20.918 67.1123 21.2461 65.2712 21.2461C61.7803 21.2461 59.096 20.3301 57.2184 18.498C55.3499 16.6569 54.4157 14.0228 54.4157 10.5957C54.4157 7.19596 55.3499 4.58008 57.2184 2.74805C59.096 0.916016 61.7666 0 65.2302 0C67.445 0 69.6416 0.259766 71.82 0.779297V4.07422C69.2953 3.20833 67.2217 2.77539 65.5993 2.77539C63.4574 2.77539 61.8031 3.45898 60.6364 4.82617C59.4697 6.19336 58.8864 8.13021 58.8864 10.6367C58.8864 13.0612 59.5108 14.9661 60.7595 16.3516C62.0082 17.7279 63.7308 18.416 65.9274 18.416C66.4105 18.416 66.9756 18.3477 67.6227 18.2109V11.5527H71.8337V20.2617ZM84.6863 20.7402V0.505859H93.3953C96.5307 0.505859 98.9324 1.33984 100.6 3.00781C102.268 4.66667 103.102 7.0638 103.102 10.1992C103.102 13.5352 102.218 16.1283 100.45 17.9785C98.6818 19.8197 96.2072 20.7402 93.0262 20.7402H84.6863ZM88.8973 17.8691H92.0418C94.2566 17.8691 95.9064 17.2585 96.991 16.0371C98.0848 14.8066 98.6316 12.9427 98.6316 10.4453C98.6316 8.51302 98.1941 6.9043 97.3191 5.61914C96.7176 4.73503 95.993 4.12435 95.1453 3.78711C94.2977 3.44987 93.0626 3.28125 91.4402 3.28125H88.8973V17.8691ZM113.685 19.127C112.336 20.4303 110.891 21.082 109.351 21.082C108.038 21.082 106.972 20.681 106.152 19.8789C105.331 19.0768 104.921 18.0378 104.921 16.7617C104.921 15.1029 105.582 13.8268 106.904 12.9336C108.234 12.0312 110.135 11.5801 112.605 11.5801H113.685V10.2129C113.685 8.6543 112.796 7.875 111.019 7.875C109.442 7.875 107.847 8.32161 106.234 9.21484V6.42578C108.066 5.73307 109.88 5.38672 111.675 5.38672C115.604 5.38672 117.568 6.94987 117.568 10.0762V16.7207C117.568 17.8965 117.946 18.4844 118.702 18.4844C118.839 18.4844 119.017 18.4661 119.236 18.4297L119.331 20.6992C118.475 20.9544 117.718 21.082 117.062 21.082C115.403 21.082 114.337 20.4303 113.863 19.127H113.685ZM113.685 16.9531V13.9043H112.728C110.112 13.9043 108.804 14.7246 108.804 16.3652C108.804 16.9212 108.991 17.3906 109.365 17.7734C109.747 18.1471 110.217 18.334 110.773 18.334C111.721 18.334 112.691 17.8737 113.685 16.9531ZM134.453 20.2344C132.53 20.7995 130.707 21.082 128.984 21.082C126.478 21.082 124.5 20.3711 123.051 18.9492C121.601 17.5273 120.877 15.5859 120.877 13.125C120.877 10.8008 121.538 8.93229 122.859 7.51953C124.19 6.09766 125.945 5.38672 128.123 5.38672C130.32 5.38672 131.924 6.07943 132.935 7.46484C133.947 8.85026 134.453 11.0423 134.453 14.041H125.143C125.416 16.903 126.988 18.334 129.859 18.334C131.217 18.334 132.749 18.0195 134.453 17.3906V20.2344ZM125.088 11.7578H130.475C130.475 9.19661 129.65 7.91602 128 7.91602C126.323 7.91602 125.352 9.19661 125.088 11.7578ZM147.36 20.7402V17.9102C146.047 20.0247 144.343 21.082 142.247 21.082C140.907 21.082 139.849 20.6582 139.075 19.8105C138.3 18.9629 137.913 17.8053 137.913 16.3379V5.72852H141.959V15.3398C141.959 17.0443 142.529 17.8965 143.668 17.8965C144.944 17.8965 146.175 16.9896 147.36 15.1758V5.72852H151.407V20.7402H147.36ZM155.919 20.7402V5.72852H159.966V8.55859C161.287 6.44401 162.992 5.38672 165.079 5.38672C166.419 5.38672 167.476 5.81055 168.251 6.6582C169.026 7.50586 169.413 8.66341 169.413 10.1309V20.7402H165.366V11.1289C165.366 9.42448 164.801 8.57227 163.671 8.57227C162.386 8.57227 161.151 9.47917 159.966 11.293V20.7402H155.919Z" fill="#111111"/>
</svg>
